<svg width="24" height="24" viewBox="0 0 24 24" fill="none" xmlns="http://www.w3.org/2000/svg">
<g id="Group">
<path id="Vector" d="M22.2234 6.10352e-05H1.77188C0.792195 6.10352e-05 7.62939e-06 0.773499 7.62939e-06 1.72975V22.2657C7.62939e-06 23.2219 0.792195 24.0001 1.77188 24.0001H22.2234C23.2031 24.0001 24 23.2219 24 22.2704V1.72975C24 0.773499 23.2031 6.10352e-05 22.2234 6.10352e-05ZM7.12032 20.4516H3.55782V8.99537H7.12032V20.4516ZM5.33907 7.43444C4.19532 7.43444 3.27188 6.511 3.27188 5.37194C3.27188 4.23287 4.19532 3.30944 5.33907 3.30944C6.47813 3.30944 7.40157 4.23287 7.40157 5.37194C7.40157 6.50631 6.47813 7.43444 5.33907 7.43444ZM20.4516 20.4516H16.8938V14.8829C16.8938 13.5563 16.8703 11.8454 15.0422 11.8454C13.1906 11.8454 12.9094 13.2938 12.9094 14.7891V20.4516H9.35626V8.99537H12.7688V10.561H12.8156C13.2891 9.661 14.4516 8.70944 16.1813 8.70944C19.7859 8.70944 20.4516 11.0813 20.4516 14.1657V20.4516Z" fill="url(#paint0_linear_1854_433)"/>
</g>
<defs>
<linearGradient id="paint0_linear_1854_433" x1="7.59526e-06" y1="0.354607" x2="21.4503" y2="7.98217" gradientUnits="userSpaceOnUse">
<stop offset="0.279209" stop-color="#E50071"/>
<stop offset="1" stop-color="#7404BF"/>
</linearGradient>
</defs>
</svg>
