<svg width="24" height="24" viewBox="0 0 24 24" fill="none" xmlns="http://www.w3.org/2000/svg">
<g id="Group">
<path id="Vector" d="M12 2.161C15.2063 2.161 15.586 2.17506 16.8469 2.23131C18.0188 2.28287 18.6516 2.47975 19.0735 2.64381C19.6313 2.85944 20.0344 3.12194 20.4516 3.53912C20.8735 3.961 21.1313 4.35944 21.3469 4.91725C21.511 5.33912 21.7078 5.97662 21.7594 7.14381C21.8157 8.40944 21.8297 8.78912 21.8297 11.9907C21.8297 15.1969 21.8157 15.5766 21.7594 16.8376C21.7078 18.0094 21.511 18.6423 21.3469 19.0641C21.1313 19.6219 20.8688 20.0251 20.4516 20.4422C20.0297 20.8641 19.6313 21.1219 19.0735 21.3376C18.6516 21.5016 18.0141 21.6985 16.8469 21.7501C15.5813 21.8063 15.2016 21.8204 12 21.8204C8.79378 21.8204 8.41409 21.8063 7.15315 21.7501C5.98128 21.6985 5.34847 21.5016 4.92659 21.3376C4.36878 21.1219 3.96565 20.8594 3.54847 20.4422C3.12659 20.0204 2.86878 19.6219 2.65315 19.0641C2.48909 18.6423 2.29222 18.0047 2.24065 16.8376C2.1844 15.5719 2.17034 15.1922 2.17034 11.9907C2.17034 8.78444 2.1844 8.40475 2.24065 7.14381C2.29222 5.97194 2.48909 5.33912 2.65315 4.91725C2.86878 4.35944 3.13128 3.95631 3.54847 3.53912C3.97034 3.11725 4.36878 2.85944 4.92659 2.64381C5.34847 2.47975 5.98597 2.28287 7.15315 2.23131C8.41409 2.17506 8.79378 2.161 12 2.161ZM12 6.10352e-05C8.74222 6.10352e-05 8.3344 0.0141235 7.05472 0.0703735C5.77972 0.126624 4.90315 0.332873 4.14378 0.628186C3.35159 0.937561 2.68128 1.34537 2.01565 2.01569C1.34534 2.68131 0.937529 3.35162 0.628154 4.13912C0.332841 4.90319 0.126591 5.77506 0.0703411 7.05006C0.0140911 8.33444 2.86102e-05 8.74225 2.86102e-05 12.0001C2.86102e-05 15.2579 0.0140911 15.6657 0.0703411 16.9454C0.126591 18.2204 0.332841 19.0969 0.628154 19.8563C0.937529 20.6485 1.34534 21.3188 2.01565 21.9844C2.68128 22.6501 3.35159 23.0626 4.13909 23.3672C4.90315 23.6626 5.77503 23.8688 7.05003 23.9251C8.32972 23.9813 8.73753 23.9954 11.9953 23.9954C15.2532 23.9954 15.661 23.9813 16.9407 23.9251C18.2157 23.8688 19.0922 23.6626 19.8516 23.3672C20.6391 23.0626 21.3094 22.6501 21.975 21.9844C22.6407 21.3188 23.0532 20.6485 23.3578 19.861C23.6532 19.0969 23.8594 18.2251 23.9157 16.9501C23.9719 15.6704 23.986 15.2626 23.986 12.0047C23.986 8.74694 23.9719 8.33912 23.9157 7.05944C23.8594 5.78444 23.6532 4.90787 23.3578 4.1485C23.0625 3.35162 22.6547 2.68131 21.9844 2.01569C21.3188 1.35006 20.6485 0.937561 19.861 0.632874C19.0969 0.337561 18.225 0.131311 16.95 0.075061C15.6657 0.0141235 15.2578 6.10352e-05 12 6.10352e-05Z" fill="url(#paint0_linear_1854_344)"/>
<path id="Vector_2" d="M12.0001 5.83606C8.59693 5.83606 5.83599 8.597 5.83599 12.0001C5.83599 15.4032 8.59693 18.1642 12.0001 18.1642C15.4032 18.1642 18.1641 15.4032 18.1641 12.0001C18.1641 8.597 15.4032 5.83606 12.0001 5.83606ZM12.0001 15.9986C9.79224 15.9986 8.00161 14.2079 8.00161 12.0001C8.00161 9.79231 9.79224 8.00168 12.0001 8.00168C14.2079 8.00168 15.9985 9.79231 15.9985 12.0001C15.9985 14.2079 14.2079 15.9986 12.0001 15.9986Z" fill="url(#paint1_linear_1854_344)"/>
<path id="Vector_3" d="M19.8469 5.59238C19.8469 6.38926 19.2001 7.03145 18.4079 7.03145C17.611 7.03145 16.9688 6.38457 16.9688 5.59238C16.9688 4.79551 17.6157 4.15332 18.4079 4.15332C19.2001 4.15332 19.8469 4.8002 19.8469 5.59238Z" fill="url(#paint2_linear_1854_344)"/>
</g>
<defs>
<linearGradient id="paint0_linear_1854_344" x1="2.85761e-05" y1="0.354537" x2="21.4396" y2="7.97532" gradientUnits="userSpaceOnUse">
<stop offset="0.279209" stop-color="#E50071"/>
<stop offset="1" stop-color="#7404BF"/>
</linearGradient>
<linearGradient id="paint1_linear_1854_344" x1="5.83599" y1="6.01818" x2="16.8544" y2="9.93624" gradientUnits="userSpaceOnUse">
<stop offset="0.279209" stop-color="#E50071"/>
<stop offset="1" stop-color="#7404BF"/>
</linearGradient>
<linearGradient id="paint2_linear_1854_344" x1="16.9688" y1="4.19584" x2="19.5412" y2="5.11055" gradientUnits="userSpaceOnUse">
<stop offset="0.279209" stop-color="#E50071"/>
<stop offset="1" stop-color="#7404BF"/>
</linearGradient>
</defs>
</svg>
