<svg width="22" height="24" viewBox="0 0 22 24" fill="none" xmlns="http://www.w3.org/2000/svg">
<g id="email">
<path id="Vector" d="M21.6665 18.4405C21.6394 18.5603 21.614 18.6848 21.5841 18.8058C21.476 19.2267 21.2454 19.6006 20.9252 19.874C20.605 20.1475 20.2115 20.3065 19.8011 20.3284C19.7097 20.3326 19.6183 20.3344 19.5269 20.3344C13.7412 20.3344 7.95535 20.3358 2.16931 20.3386C1.57009 20.3386 1.04084 20.1762 0.615973 19.7204C0.221008 19.297 0.0404527 18.7783 0.0410169 18.1817C0.0432739 15.6337 0.0432739 13.086 0.0410169 10.5384C0.0410169 9.29017 0.0410169 8.04234 0.0410169 6.79491C0.0410169 5.52213 0.865928 4.62369 2.06154 4.62309C7.91793 4.6175 13.7741 4.6175 19.6301 4.62309C20.7022 4.62309 21.4267 5.28674 21.6309 6.41098C21.6399 6.44658 21.6514 6.48141 21.6653 6.5152L21.6665 18.4405ZM1.28233 5.68265C1.31167 5.71978 1.32804 5.74254 1.34779 5.7647C3.99029 8.56982 6.63448 11.3726 9.28037 14.1729C9.50555 14.4089 9.77457 14.5924 10.0703 14.7119C10.9939 15.0755 11.8031 14.8389 12.4965 14.101C15.0882 11.3478 17.6826 8.59798 20.2796 5.85155C20.3281 5.80004 20.3744 5.74554 20.4285 5.68504C20.1667 5.46523 19.8767 5.41012 19.5675 5.41012C17.2383 5.41012 14.909 5.41012 12.5794 5.41012C9.09586 5.41012 5.61246 5.41012 2.12925 5.41012C1.82682 5.40773 1.54357 5.46283 1.28233 5.67965V5.68265ZM6.48853 12.355C6.42308 12.4395 6.37568 12.5066 6.32377 12.5641C4.54831 14.4508 2.77022 16.3351 0.989496 18.217C0.820225 18.3967 0.803298 18.5519 0.900911 18.7447C0.970366 18.8907 1.05701 19.0268 1.15877 19.1496C1.42678 19.4551 1.77491 19.5306 2.15746 19.5306C7.95027 19.5262 13.7431 19.5262 19.5359 19.5306C19.6132 19.5306 19.6911 19.5306 19.7684 19.5258C20.0051 19.5129 20.233 19.4258 20.4231 19.2755C20.6132 19.1252 20.7571 18.9184 20.8365 18.6812C20.8974 18.5081 20.8788 18.3889 20.7468 18.2494C18.9502 16.3531 17.1577 14.4526 15.369 12.5479C15.3199 12.4964 15.2686 12.4473 15.2093 12.388C15.1473 12.4479 15.0909 12.5042 15.0401 12.5611C14.3694 13.2663 13.7006 13.9728 13.0337 14.6808C12.9309 14.7935 12.8222 14.8999 12.7081 14.9994C12.1384 15.481 11.422 15.7239 10.6948 15.682C9.96755 15.64 9.28015 15.3161 8.76296 14.7718C8.01197 13.9824 7.27056 13.187 6.48853 12.355ZM0.827561 6.42535V17.2318L5.90568 11.813L0.827561 6.42535ZM20.8765 17.2318C20.9566 16.6681 20.9104 6.59606 20.8585 6.48046L15.7849 11.8226L20.8765 17.2318Z" fill="#C6C6C6"/>
<path id="Vector_2" d="M21.6666 18.0681C21.6395 18.19 21.6141 18.3168 21.5841 18.4399C21.4758 18.8683 21.2448 19.2489 20.9239 19.5272C20.6031 19.8055 20.2089 19.9674 19.7977 19.9896C19.7061 19.9939 19.6146 19.9957 19.523 19.9957C13.7263 19.9957 7.92941 19.9972 2.13235 20C1.53199 20 1.00173 19.8348 0.576052 19.3709C0.180335 18.9398 -0.000563989 18.4119 1.32069e-06 17.8047C0.00226256 15.2113 0.00226256 12.6181 1.32069e-06 10.0251C1.32069e-06 8.75458 1.32069e-06 7.4845 1.32069e-06 6.21482C1.32069e-06 4.91934 0.826484 4.00488 2.02438 4.00427C7.89191 3.99858 13.7593 3.99858 19.6264 4.00427C20.7005 4.00427 21.4264 4.67975 21.631 5.82404C21.64 5.86028 21.6516 5.89573 21.6655 5.93012L21.6666 18.0681ZM1.24368 5.08272C1.27308 5.12052 1.28947 5.14368 1.30926 5.16624C3.95679 8.02139 6.60602 10.8741 9.25695 13.7244C9.48256 13.9646 9.7521 14.1514 10.0484 14.273C10.9738 14.6431 11.7844 14.4023 12.4792 13.6512C15.0759 10.8489 17.6752 8.05004 20.2771 5.25464C20.3257 5.20221 20.3721 5.14673 20.4263 5.08516C20.164 4.86142 19.8735 4.80534 19.5637 4.80534C17.2301 4.80534 14.8963 4.80534 12.5623 4.80534C9.07209 4.80534 5.58206 4.80534 2.09221 4.80534C1.78921 4.8029 1.50542 4.85898 1.24368 5.07967V5.08272ZM6.45979 11.8741C6.39422 11.9601 6.34673 12.0283 6.29472 12.0869C4.51588 14.0072 2.7344 15.9252 0.950287 17.8407C0.780694 18.0235 0.763734 18.1814 0.861533 18.3777C0.931121 18.5264 1.01793 18.6648 1.11988 18.7899C1.3884 19.1008 1.7372 19.1776 2.12048 19.1776C7.92432 19.1731 13.7282 19.1731 19.532 19.1776C19.6095 19.1776 19.6875 19.1776 19.7649 19.1727C20.0021 19.1596 20.2304 19.071 20.4209 18.918C20.6114 18.765 20.7555 18.5545 20.8351 18.3131C20.8961 18.1369 20.8775 18.0156 20.7452 17.8736C18.9452 15.9435 17.1492 14.0091 15.3572 12.0704C15.308 12.018 15.2566 11.968 15.1972 11.9076C15.135 11.9686 15.0785 12.0259 15.0276 12.0838C14.3557 12.8016 13.6856 13.5207 13.0174 14.2413C12.9145 14.356 12.8055 14.4643 12.6912 14.5657C12.1204 15.0559 11.4026 15.3031 10.674 15.2604C9.94544 15.2176 9.25673 14.888 8.73856 14.334C7.98613 13.5305 7.24331 12.7209 6.45979 11.8741ZM0.788043 5.83867V16.8378L5.87583 11.3224L0.788043 5.83867ZM20.8752 16.8378C20.9555 16.2641 20.9091 6.01242 20.8571 5.89476L15.7738 11.3321L20.8752 16.8378Z" fill="#C6C6C6"/>
</g>
</svg>
