<svg width="24" height="27" viewBox="0 0 24 27" fill="none" xmlns="http://www.w3.org/2000/svg">
<g id="Facebook - Negative" clip-path="url(#clip0_1673_57)">
<path id="Vector" d="M23.9821 13.4038C23.9821 6.33121 18.6136 0.597778 11.9911 0.597778C5.36858 0.597778 0 6.33121 0 13.4038C0 19.7955 4.38494 25.0935 10.1175 26.0542V17.1055H7.07286V13.4038H10.1175V10.5825C10.1175 7.37295 11.9077 5.60012 14.6467 5.60012C15.9582 5.60012 17.3308 5.85024 17.3308 5.85024V9.00171H15.8188C14.3293 9.00171 13.8647 9.98893 13.8647 11.0027V13.4038H17.1903L16.6587 17.1055H13.8647V26.0542C19.5972 25.0935 23.9821 19.7955 23.9821 13.4038Z" fill="#E9E9E9"/>
</g>
<defs>
<clipPath id="clip0_1673_57">
<rect width="23.9821" height="25.612" fill="white" transform="translate(0 0.597656)"/>
</clipPath>
</defs>
</svg>
