<svg width="24" height="24" viewBox="0 0 24 24" fill="none" xmlns="http://www.w3.org/2000/svg">
<g id="Group">
<path id="Vector" d="M12 2.161C15.2063 2.161 15.5859 2.17506 16.8469 2.23131C18.0188 2.28287 18.6516 2.47975 19.0734 2.64381C19.6313 2.85944 20.0344 3.12194 20.4516 3.53912C20.8734 3.961 21.1313 4.35944 21.3469 4.91725C21.5109 5.33912 21.7078 5.97662 21.7594 7.14381C21.8156 8.40944 21.8297 8.78912 21.8297 11.9907C21.8297 15.1969 21.8156 15.5766 21.7594 16.8376C21.7078 18.0094 21.5109 18.6423 21.3469 19.0641C21.1313 19.6219 20.8687 20.0251 20.4516 20.4422C20.0297 20.8641 19.6313 21.1219 19.0734 21.3376C18.6516 21.5016 18.0141 21.6985 16.8469 21.7501C15.5813 21.8063 15.2016 21.8204 12 21.8204C8.79375 21.8204 8.41406 21.8063 7.15313 21.7501C5.98125 21.6985 5.34844 21.5016 4.92656 21.3376C4.36875 21.1219 3.96563 20.8594 3.54844 20.4422C3.12656 20.0204 2.86875 19.6219 2.65313 19.0641C2.48906 18.6423 2.29219 18.0047 2.24063 16.8376C2.18438 15.5719 2.17031 15.1922 2.17031 11.9907C2.17031 8.78444 2.18438 8.40475 2.24063 7.14381C2.29219 5.97194 2.48906 5.33912 2.65313 4.91725C2.86875 4.35944 3.13125 3.95631 3.54844 3.53912C3.97031 3.11725 4.36875 2.85944 4.92656 2.64381C5.34844 2.47975 5.98594 2.28287 7.15313 2.23131C8.41406 2.17506 8.79375 2.161 12 2.161ZM12 6.10352e-05C8.74219 6.10352e-05 8.33438 0.0141235 7.05469 0.0703735C5.77969 0.126624 4.90313 0.332873 4.14375 0.628186C3.35156 0.937561 2.68125 1.34537 2.01563 2.01569C1.34531 2.68131 0.9375 3.35162 0.628125 4.13912C0.332812 4.90319 0.126563 5.77506 0.0703125 7.05006C0.0140625 8.33444 0 8.74225 0 12.0001C0 15.2579 0.0140625 15.6657 0.0703125 16.9454C0.126563 18.2204 0.332812 19.0969 0.628125 19.8563C0.9375 20.6485 1.34531 21.3188 2.01563 21.9844C2.68125 22.6501 3.35156 23.0626 4.13906 23.3672C4.90313 23.6626 5.775 23.8688 7.05 23.9251C8.32969 23.9813 8.7375 23.9954 11.9953 23.9954C15.2531 23.9954 15.6609 23.9813 16.9406 23.9251C18.2156 23.8688 19.0922 23.6626 19.8516 23.3672C20.6391 23.0626 21.3094 22.6501 21.975 21.9844C22.6406 21.3188 23.0531 20.6485 23.3578 19.861C23.6531 19.0969 23.8594 18.2251 23.9156 16.9501C23.9719 15.6704 23.9859 15.2626 23.9859 12.0047C23.9859 8.74694 23.9719 8.33912 23.9156 7.05944C23.8594 5.78444 23.6531 4.90787 23.3578 4.1485C23.0625 3.35162 22.6547 2.68131 21.9844 2.01569C21.3188 1.35006 20.6484 0.937561 19.8609 0.632874C19.0969 0.337561 18.225 0.131311 16.95 0.075061C15.6656 0.0141235 15.2578 6.10352e-05 12 6.10352e-05Z" fill="url(#paint0_linear_1940_700)"/>
<path id="Vector_2" d="M12 5.83603C8.59688 5.83603 5.83594 8.59697 5.83594 12.0001C5.83594 15.4032 8.59688 18.1642 12 18.1642C15.4031 18.1642 18.1641 15.4032 18.1641 12.0001C18.1641 8.59697 15.4031 5.83603 12 5.83603ZM12 15.9985C9.79219 15.9985 8.00156 14.2079 8.00156 12.0001C8.00156 9.79228 9.79219 8.00165 12 8.00165C14.2078 8.00165 15.9984 9.79228 15.9984 12.0001C15.9984 14.2079 14.2078 15.9985 12 15.9985Z" fill="url(#paint1_linear_1940_700)"/>
<path id="Vector_3" d="M19.8469 5.59235C19.8469 6.38923 19.2001 7.03142 18.4079 7.03142C17.611 7.03142 16.9688 6.38454 16.9688 5.59235C16.9688 4.79548 17.6157 4.15329 18.4079 4.15329C19.2001 4.15329 19.8469 4.80017 19.8469 5.59235Z" fill="url(#paint2_linear_1940_700)"/>
</g>
<defs>
<linearGradient id="paint0_linear_1940_700" x1="8.41147e-09" y1="19.5518" x2="24.0036" y2="19.6496" gradientUnits="userSpaceOnUse">
<stop stop-color="#1777EE"/>
<stop offset="1" stop-color="#1BEEE7"/>
</linearGradient>
<linearGradient id="paint1_linear_1940_700" x1="5.83594" y1="15.8812" x2="18.1732" y2="15.9314" gradientUnits="userSpaceOnUse">
<stop stop-color="#1777EE"/>
<stop offset="1" stop-color="#1BEEE7"/>
</linearGradient>
<linearGradient id="paint2_linear_1940_700" x1="16.9688" y1="6.49843" x2="19.8491" y2="6.51017" gradientUnits="userSpaceOnUse">
<stop stop-color="#1777EE"/>
<stop offset="1" stop-color="#1BEEE7"/>
</linearGradient>
</defs>
</svg>
