<svg width="25" height="27" viewBox="0 0 25 27" fill="none" xmlns="http://www.w3.org/2000/svg">
<g id="Group">
<path id="Vector" d="M22.3905 0.597717H1.95415C0.975192 0.597717 0.183594 1.4231 0.183594 2.44358V24.3588C0.183594 25.3793 0.975192 26.2097 1.95415 26.2097H22.3905C23.3695 26.2097 24.1657 25.3793 24.1657 24.3638V2.44358C24.1657 1.4231 23.3695 0.597717 22.3905 0.597717ZM7.29861 22.4229H3.73876V10.1972H7.29861V22.4229ZM5.51868 8.53143C4.37578 8.53143 3.45303 7.54597 3.45303 6.3304C3.45303 5.11483 4.37578 4.12937 5.51868 4.12937C6.6569 4.12937 7.57965 5.11483 7.57965 6.3304C7.57965 7.54097 6.6569 8.53143 5.51868 8.53143ZM20.6199 22.4229H17.0648V16.4802C17.0648 15.0645 17.0414 13.2386 15.2146 13.2386C13.3644 13.2386 13.0834 14.7844 13.0834 16.3801V22.4229H9.53288V10.1972H12.9428V11.868H12.9897C13.4628 10.9075 14.6244 9.89207 16.3528 9.89207C19.9548 9.89207 20.6199 12.4233 20.6199 15.7148V22.4229Z" fill="#E9E9E9"/>
</g>
</svg>
