<svg width="25" height="27" viewBox="0 0 25 27" fill="none" xmlns="http://www.w3.org/2000/svg">
<g id="Group">
<path id="Vector" d="M12.9576 2.9038C16.1615 2.9038 16.5409 2.9188 17.8009 2.97883C18.9719 3.03386 19.6042 3.24396 20.0258 3.41904C20.5832 3.64915 20.986 3.92928 21.4029 4.37449C21.8245 4.8247 22.0821 5.2499 22.2975 5.84517C22.4615 6.29539 22.6582 6.9757 22.7097 8.22129C22.7659 9.57192 22.78 9.97711 22.78 13.3937C22.78 16.8153 22.7659 17.2205 22.7097 18.5661C22.6582 19.8167 22.4615 20.492 22.2975 20.9422C22.0821 21.5375 21.8198 21.9677 21.4029 22.4129C20.9813 22.8631 20.5832 23.1383 20.0258 23.3684C19.6042 23.5435 18.9672 23.7536 17.8009 23.8086C16.5362 23.8686 16.1568 23.8836 12.9576 23.8836C9.75376 23.8836 9.37436 23.8686 8.11436 23.8086C6.94335 23.7536 6.31101 23.5435 5.88945 23.3684C5.33205 23.1383 4.92923 22.8581 4.51235 22.4129C4.09079 21.9627 3.83317 21.5375 3.6177 20.9422C3.45376 20.492 3.25703 19.8117 3.20551 18.5661C3.1493 17.2155 3.13525 16.8103 3.13525 13.3937C3.13525 9.97211 3.1493 9.56692 3.20551 8.22129C3.25703 6.9707 3.45376 6.29539 3.6177 5.84517C3.83317 5.2499 4.09547 4.81969 4.51235 4.37449C4.93391 3.92428 5.33205 3.64915 5.88945 3.41904C6.31101 3.24396 6.94804 3.03386 8.11436 2.97883C9.37436 2.9188 9.75376 2.9038 12.9576 2.9038ZM12.9576 0.597717C9.70224 0.597717 9.29473 0.612724 8.01599 0.672752C6.74194 0.732781 5.86603 0.952884 5.10722 1.26803C4.31562 1.59819 3.64581 2.03339 2.98068 2.74872C2.31086 3.45906 1.90336 4.17439 1.59421 5.01479C1.29912 5.83017 1.09302 6.7606 1.03681 8.12124C0.980605 9.49188 0.966553 9.92709 0.966553 13.4037C0.966553 16.8803 0.980605 17.3155 1.03681 18.6812C1.09302 20.0418 1.29912 20.9773 1.59421 21.7876C1.90336 22.633 2.31086 23.3484 2.98068 24.0587C3.64581 24.769 4.31562 25.2092 5.10254 25.5344C5.86603 25.8495 6.73726 26.0696 8.01131 26.1297C9.29004 26.1897 9.69755 26.2047 12.9529 26.2047C16.2083 26.2047 16.6158 26.1897 17.8946 26.1297C19.1686 26.0696 20.0445 25.8495 20.8033 25.5344C21.5903 25.2092 22.2601 24.769 22.9252 24.0587C23.5903 23.3484 24.0025 22.633 24.307 21.7926C24.6021 20.9773 24.8082 20.0468 24.8644 18.6862C24.9206 17.3205 24.9346 16.8853 24.9346 13.4087C24.9346 9.93209 24.9206 9.49689 24.8644 8.13125C24.8082 6.77061 24.6021 5.83517 24.307 5.02479C24.0119 4.17439 23.6044 3.45906 22.9346 2.74872C22.2694 2.03839 21.5996 1.59819 20.8127 1.27303C20.0492 0.957886 19.178 0.737783 17.9039 0.677755C16.6205 0.612724 16.213 0.597717 12.9576 0.597717Z" fill="#E9E9E9"/>
<path id="Vector_2" d="M12.9577 6.82568C9.5571 6.82568 6.79822 9.77206 6.79822 13.4038C6.79822 17.0355 9.5571 19.9818 12.9577 19.9818C16.3583 19.9818 19.1172 17.0355 19.1172 13.4038C19.1172 9.77206 16.3583 6.82568 12.9577 6.82568ZM12.9577 17.6708C10.7515 17.6708 8.96223 15.7599 8.96223 13.4038C8.96223 11.0477 10.7515 9.13677 12.9577 9.13677C15.1639 9.13677 16.9532 11.0477 16.9532 13.4038C16.9532 15.7599 15.1639 17.6708 12.9577 17.6708Z" fill="#E9E9E9"/>
<path id="Vector_3" d="M20.7987 6.56563C20.7987 7.41603 20.1523 8.10135 19.3607 8.10135C18.5644 8.10135 17.9227 7.41102 17.9227 6.56563C17.9227 5.71523 18.5691 5.02991 19.3607 5.02991C20.1523 5.02991 20.7987 5.72023 20.7987 6.56563Z" fill="#E9E9E9"/>
</g>
</svg>
