<svg width="20" height="24" viewBox="0 0 20 24" fill="none" xmlns="http://www.w3.org/2000/svg">
<g id="icon nome">
<path id="Vector" d="M8.71114 23.563C8.51241 23.4711 8.29532 23.5001 8.08833 23.4817C5.73296 23.2748 3.46938 22.726 1.33477 21.6891C1.20443 21.6257 1.08051 21.5476 0.946035 21.4947C0.423742 21.2874 0.163972 20.9018 0.100177 20.3502C-0.0342976 19.1878 -0.0691788 18.0296 0.224554 16.8865C0.531138 15.6951 1.25767 14.9018 2.46381 14.5718C3.81636 14.2041 5.06197 13.5942 6.2346 12.8316C6.43838 12.6993 6.64399 12.6253 6.88173 12.7075C7.13508 12.7953 7.29204 12.9773 7.32738 13.2412C7.3641 13.5169 7.25349 13.7357 7.02263 13.8888C6.1628 14.4597 5.24888 14.9443 4.29413 15.3357C3.82049 15.5301 3.34088 15.7126 2.84382 15.833C2.07966 16.0168 1.65053 16.5247 1.4798 17.2578C1.26088 18.184 1.28934 19.1244 1.3848 20.0648C1.39948 20.2082 1.47062 20.2886 1.60051 20.3553C3.16096 21.1605 4.82193 21.656 6.54532 21.964C7.99931 22.2184 9.47724 22.3084 10.9513 22.2324C13.549 22.1078 16.0457 21.5646 18.3786 20.3691C18.5264 20.2932 18.598 20.1981 18.6127 20.0409C18.6994 19.1313 18.7251 18.2217 18.5269 17.3236C18.3566 16.5537 17.9183 16.0476 17.1206 15.8302C15.6359 15.4267 14.265 14.757 12.984 13.9049C12.6963 13.7132 12.593 13.4163 12.694 13.1313C12.7386 12.9908 12.829 12.8694 12.9508 12.7865C13.0725 12.7037 13.2186 12.6642 13.3654 12.6744C13.4951 12.6891 13.6189 12.7366 13.7252 12.8123C14.9404 13.6098 16.2692 14.2185 17.6663 14.6177C18.788 14.9363 19.4631 15.7236 19.7527 16.8276C20.0813 18.082 20.052 19.3556 19.8422 20.6283C19.7821 20.996 19.5636 21.2162 19.2483 21.389C17.7554 22.208 16.1618 22.7417 14.505 23.1002C13.4825 23.3192 12.4446 23.4589 11.4006 23.518C11.3547 23.5203 11.3065 23.5106 11.2808 23.5639L8.71114 23.563Z" fill="#C6C6C6"/>
<path id="Vector_2" d="M10.5524 0C10.8594 0.0652519 11.1715 0.113042 11.4731 0.198512C13.2926 0.713635 14.4153 1.93412 14.8028 3.77588C15.1977 5.65164 15.1321 7.53246 14.5067 9.36273C14.1146 10.5092 13.4605 11.4682 12.3892 12.0767C11.4535 12.6074 10.4409 12.7517 9.38198 12.6359C8.27661 12.515 7.32955 12.0725 6.57535 11.2403C6.00811 10.614 5.63056 9.87555 5.39811 9.06496C4.86727 7.21309 4.78311 5.33687 5.28303 3.47397C5.79614 1.56191 7.088 0.454925 9.00579 0.0873086C9.11223 0.0670897 9.23323 0.0845515 9.32421 0.000459268L10.5524 0ZM6.27376 5.86072C6.27376 7.163 6.4266 8.12708 6.72865 8.97259C7.51013 11.1608 9.35059 11.71 11.2056 11.1663C12.3046 10.8447 12.9114 9.98859 13.2758 8.95008C13.8148 7.41298 13.8512 5.82948 13.5728 4.24183C13.3622 3.04248 12.7481 2.11058 11.59 1.63222C10.8599 1.33031 10.0957 1.25541 9.31556 1.37397C7.98776 1.5757 7.06207 2.28933 6.59991 3.57966C6.31425 4.37417 6.28786 5.20866 6.27376 5.86072Z" fill="#C6C6C6"/>
</g>
</svg>
