<svg width="144" height="31" viewBox="0 0 144 31" fill="none" xmlns="http://www.w3.org/2000/svg">
<mask id="mask0_1391_73" style="mask-type:luminance" maskUnits="userSpaceOnUse" x="0" y="3" width="38" height="25">
<path d="M12.9747 8.98666C12.9747 5.7203 15.628 3.15204 19.0092 3.15597C22.3437 3.15794 25.0174 5.74979 25.0092 8.96896C24.9991 12.1999 22.2664 14.8252 18.9421 14.7977C15.6585 14.7702 12.9787 12.1606 12.9767 8.98666H12.9747ZM25.9506 21.5192C25.9547 24.76 28.5979 27.3184 31.9527 27.3263C35.2892 27.3342 37.971 24.7561 37.9791 21.5389C37.9852 18.2961 35.2871 15.6767 31.9445 15.6846C28.6324 15.6924 25.9486 18.3059 25.9506 21.5212V21.5192ZM27.1014 5.52561C26.2007 6.69568 25.9974 8.03094 25.9079 9.43699C25.7026 12.6345 23.1387 15.2402 19.9059 15.6256C16.5572 16.0248 13.4504 14.192 12.4379 11.1066C12.1289 10.1626 12.1044 9.12628 11.9703 8.13123C11.5758 5.2031 8.86146 3.03208 5.73641 3.15793C2.67236 3.28182 0.141027 5.6908 0.00683448 8.61303C-0.151756 12.0229 2.46702 14.7092 6.05361 14.7977C7.2776 14.8272 8.43653 15.071 9.48567 15.6905C11.7405 17.0218 12.9055 18.9726 12.9747 21.533C13.0397 23.9439 14.1885 25.7393 16.423 26.7717C20.3166 28.5731 24.7714 25.9635 24.995 21.7926C25.054 20.6992 25.1556 19.6235 25.6823 18.6383C26.9835 16.2037 29.0391 14.896 31.8917 14.8036C35.3746 14.6915 37.971 12.2098 37.9791 8.98469C37.9852 6.48526 36.3322 4.22968 33.9269 3.45685C31.3773 2.63878 28.6894 3.46471 27.1014 5.52561ZM12.0394 21.5684C12.078 18.3748 9.40232 15.7259 6.08615 15.6767C2.79437 15.6276 0.0291939 18.243 0.000728885 21.4307C-0.0297693 24.6951 2.60934 27.2968 5.97634 27.3243C9.31081 27.3519 12.0007 24.7974 12.0394 21.5684Z" fill="white"/>
</mask>
<g mask="url(#mask0_1391_73)">
<path d="M-2.22968 1.62209L-2.22968 28.1778L41.2831 28.1778V1.62209L-2.22968 1.62209Z" fill="url(#paint0_linear_1391_73)"/>
</g>
<path d="M49.1516 9.99353H55.237V12.0013H51.258V13.9501H55.237V15.9225H51.258V18.7583H55.237V20.7739H49.1516V9.99353Z" fill="white"/>
<path d="M56.8372 9.72217H58.9049V20.7739H56.8372V9.72217Z" fill="white"/>
<path d="M66.9463 12.7998H69.014V20.7739H66.9463V19.9303C66.5416 20.302 66.137 20.5694 65.7324 20.7326C65.3258 20.8959 64.8866 20.9785 64.4108 20.9785C63.3454 20.9785 62.4244 20.5793 61.6477 19.7809C60.871 18.9825 60.4827 17.9894 60.4827 16.8016C60.4827 15.6138 60.8588 14.5618 61.6111 13.7751C62.3634 12.9885 63.2763 12.5952 64.3519 12.5952C64.8459 12.5952 65.3095 12.6857 65.7446 12.8666C66.1777 13.0475 66.5803 13.3189 66.9483 13.6808V12.8017L66.9463 12.7998ZM64.7707 14.4418C64.1303 14.4418 63.5996 14.6601 63.1767 15.0986C62.7538 15.5352 62.5423 16.0976 62.5423 16.78C62.5423 17.4623 62.7578 18.0366 63.1889 18.481C63.6199 18.9254 64.1485 19.1476 64.7788 19.1476C65.4091 19.1476 65.9663 18.9294 66.3953 18.4908C66.8222 18.0543 67.0377 17.48 67.0377 16.7721C67.0377 16.0642 66.8243 15.5175 66.3953 15.0868C65.9683 14.6561 65.4254 14.4418 64.7707 14.4418Z" fill="white"/>
<path d="M76.2299 13.9148L74.949 15.1537C74.4285 14.6561 73.9568 14.4064 73.5318 14.4064C73.3 14.4064 73.117 14.4536 72.9869 14.55C72.8548 14.6444 72.7897 14.7643 72.7897 14.9059C72.7897 15.0141 72.8324 15.1124 72.9137 15.2028C72.9971 15.2933 73.2024 15.4172 73.5318 15.5725L74.2902 15.9383C75.0893 16.3198 75.6362 16.7072 75.9351 17.1044C76.234 17.4997 76.3824 17.9638 76.3824 18.4967C76.3824 19.2047 76.114 19.7966 75.5752 20.2705C75.0364 20.7445 74.3167 20.9824 73.4119 20.9824C72.2102 20.9824 71.2506 20.5281 70.5328 19.6196L71.8056 18.2785C72.0476 18.5518 72.3322 18.774 72.6575 18.9412C72.9828 19.1083 73.2716 19.1948 73.5257 19.1948C73.7982 19.1948 74.0178 19.1319 74.1845 19.0041C74.3512 18.8763 74.4346 18.7308 74.4346 18.5636C74.4346 18.2549 74.1337 17.9559 73.5318 17.6629L72.8344 17.3267C71.5006 16.6777 70.8337 15.8636 70.8337 14.8862C70.8337 14.2569 71.0859 13.7181 71.5881 13.2698C72.0903 12.8234 72.7328 12.5992 73.5155 12.5992C74.0503 12.5992 74.5545 12.7132 75.0262 12.9394C75.4979 13.1655 75.8985 13.492 76.2279 13.9167L76.2299 13.9148Z" fill="white"/>
<path d="M78.804 9.86179H80.8718V12.7997H82.0999V14.5224H80.8718V20.7739H78.804V14.5224H77.7427V12.7997H78.804V9.86179Z" fill="white"/>
<path d="M84.6658 9.51764C85.0277 9.51764 85.3387 9.64546 85.599 9.89914C85.8593 10.1528 85.9874 10.4616 85.9874 10.8234C85.9874 11.1852 85.8593 11.4841 85.601 11.7359C85.3449 11.9876 85.0378 12.1134 84.68 12.1134C84.3221 12.1134 83.9989 11.9856 83.7386 11.728C83.4784 11.4723 83.3503 11.1597 83.3503 10.7939C83.3503 10.4281 83.4784 10.141 83.7345 9.89324C83.9907 9.64349 84.3018 9.5196 84.6637 9.5196L84.6658 9.51764ZM83.6308 12.8017H85.6986V20.7759H83.6308V12.8017Z" fill="white"/>
<path d="M95.6167 14.4123L93.8945 15.3287C93.5712 15.0022 93.25 14.7741 92.9348 14.6463C92.6197 14.5185 92.2476 14.4555 91.8227 14.4555C91.048 14.4555 90.4238 14.6797 89.944 15.1242C89.4662 15.5706 89.2263 16.1428 89.2263 16.8409C89.2263 17.539 89.456 18.072 89.9176 18.5026C90.3771 18.9313 90.983 19.1457 91.7312 19.1457C92.6563 19.1457 93.3781 18.8409 93.8925 18.2293L95.5231 19.3089C94.6387 20.4219 93.3923 20.9765 91.78 20.9765C90.3303 20.9765 89.1937 20.5615 88.3744 19.7297C87.5529 18.8999 87.1422 17.9264 87.1422 16.8134C87.1422 16.0405 87.3415 15.3306 87.74 14.6817C88.1385 14.0308 88.6956 13.5215 89.4113 13.1498C90.127 12.7781 90.926 12.5933 91.8105 12.5933C92.6299 12.5933 93.3639 12.7506 94.0165 13.0652C94.6671 13.3799 95.2019 13.8282 95.6146 14.4103L95.6167 14.4123Z" fill="white"/>
<path d="M110.931 11.8027L109.447 13.1714C108.438 12.139 107.301 11.6237 106.039 11.6237C104.973 11.6237 104.077 11.9757 103.347 12.6798C102.617 13.3838 102.253 14.253 102.253 15.2834C102.253 16.0031 102.414 16.6403 102.737 17.1988C103.06 17.7573 103.518 18.1938 104.107 18.5124C104.697 18.831 105.354 18.9883 106.075 18.9883C106.692 18.9883 107.255 18.8762 107.763 18.654C108.273 18.4318 108.832 18.0267 109.444 17.4407L110.882 18.8919C110.059 19.6687 109.28 20.2075 108.548 20.5084C107.816 20.8093 106.98 20.9587 106.039 20.9587C104.307 20.9587 102.887 20.4278 101.783 19.3639C100.679 18.302 100.128 16.9392 100.128 15.2775C100.128 14.2018 100.38 13.2481 100.883 12.4123C101.385 11.5765 102.105 10.906 103.042 10.3966C103.979 9.88928 104.988 9.63364 106.069 9.63364C106.988 9.63364 107.875 9.82242 108.725 10.198C109.577 10.5736 110.309 11.1085 110.927 11.8007L110.931 11.8027Z" fill="white"/>
<path d="M116.597 12.5107C117.376 12.5107 118.106 12.6994 118.791 13.0751C119.476 13.4507 120.009 13.9619 120.393 14.607C120.778 15.252 120.969 15.9481 120.969 16.6954C120.969 17.4427 120.776 18.1506 120.389 18.8054C120.003 19.4603 119.476 19.9716 118.81 20.3413C118.143 20.711 117.409 20.8939 116.603 20.8939C115.422 20.8939 114.412 20.4868 113.576 19.6746C112.74 18.8605 112.322 17.8733 112.322 16.7092C112.322 15.4624 112.793 14.4241 113.739 13.5942C114.566 12.8705 115.52 12.5087 116.595 12.5087L116.597 12.5107ZM116.632 14.3946C115.989 14.3946 115.455 14.6109 115.026 15.0435C114.599 15.4762 114.385 16.0287 114.385 16.7033C114.385 17.3778 114.597 17.9599 115.02 18.3885C115.442 18.8192 115.977 19.0336 116.626 19.0336C117.274 19.0336 117.813 18.8173 118.242 18.3807C118.671 17.9461 118.887 17.3856 118.887 16.7033C118.887 16.0209 118.675 15.4644 118.252 15.0357C117.829 14.6089 117.289 14.3946 116.632 14.3946Z" fill="white"/>
<path d="M128.811 9.6376H130.879V20.6894H128.811V19.8457C128.406 20.2174 128.002 20.4849 127.597 20.6481C127.19 20.8113 126.751 20.8939 126.275 20.8939C125.21 20.8939 124.289 20.4947 123.512 19.6963C122.736 18.8979 122.347 17.9048 122.347 16.717C122.347 15.5293 122.723 14.4772 123.476 13.6906C124.228 12.904 125.141 12.5107 126.216 12.5107C126.711 12.5107 127.174 12.6011 127.609 12.782C128.042 12.963 128.445 13.2343 128.813 13.5962V9.6376H128.811ZM126.635 14.3572C125.995 14.3572 125.464 14.5755 125.041 15.014C124.618 15.4506 124.407 16.013 124.407 16.6954C124.407 17.3778 124.622 17.952 125.054 18.3964C125.485 18.8408 126.013 19.0631 126.643 19.0631C127.274 19.0631 127.831 18.8448 128.26 18.4063C128.687 17.9697 128.902 17.3955 128.902 16.6875C128.902 15.9796 128.689 15.4329 128.26 15.0022C127.833 14.5716 127.29 14.3572 126.635 14.3572Z" fill="white"/>
<path d="M141.018 16.3041L134.551 17.7848C134.778 18.3158 135.136 18.6973 135.62 18.9293C136.106 19.1614 136.663 19.2066 137.291 19.0631C138.044 18.89 138.627 18.4888 139.044 17.8556L140.929 18.2371C140.648 18.9136 140.246 19.4583 139.725 19.8713C139.203 20.2843 138.538 20.5832 137.727 20.77C136.468 21.0571 135.35 20.9077 134.37 20.3216C133.39 19.7356 132.759 18.8644 132.477 17.7081C132.188 16.5243 132.341 15.4506 132.938 14.489C133.536 13.5254 134.429 12.9079 135.62 12.6365C136.883 12.3475 138.007 12.5028 138.989 13.1046C139.971 13.7063 140.62 14.6483 140.935 15.9324L141.018 16.306V16.3041ZM138.629 15.2304C138.391 14.8292 138.042 14.5362 137.584 14.3553C137.127 14.1743 136.639 14.1429 136.122 14.2609C135.561 14.3887 135.106 14.6542 134.756 15.0553C134.536 15.307 134.372 15.6984 134.264 16.2293L138.629 15.2304Z" fill="white"/>
<defs>
<linearGradient id="paint0_linear_1391_73" x1="19.5277" y1="28.1778" x2="19.5277" y2="1.62209" gradientUnits="userSpaceOnUse">
<stop stop-color="#2FDBD5"/>
<stop offset="1" stop-color="#177EEE"/>
</linearGradient>
</defs>
</svg>
