<svg width="16" height="26" viewBox="0 0 16 26" fill="none" xmlns="http://www.w3.org/2000/svg">
<g id="telefone">
<path id="Vector" d="M7.97134 22.6098C8.9073 22.6098 9.84388 22.6098 10.7811 22.6098C11.1878 22.6098 11.4004 22.7843 11.3939 23.1019C11.3883 23.3999 11.1729 23.5801 10.7959 23.581C8.91101 23.581 7.0261 23.581 5.14119 23.581C4.7512 23.581 4.51536 23.3841 4.52186 23.0824C4.52836 22.7806 4.75863 22.6098 5.16161 22.6098C6.09943 22.6085 7.03601 22.6085 7.97134 22.6098Z" fill="#C6C6C6"/>
<path id="Vector_2" d="M15.9484 13.0022C15.9484 16.499 15.9484 19.9965 15.9484 23.4946C15.9484 24.8103 15.1926 25.7453 13.9679 25.9645C13.7835 25.9924 13.5971 26.0039 13.4107 25.9988C9.78577 25.9988 6.16017 25.9988 2.53396 25.9988C0.982385 25.9988 0 25.0136 0 23.4556C0 16.4829 0 9.51062 0 2.5386C0 0.982386 0.983314 0.000928529 2.53767 0H13.3829C14.9865 0 15.9475 0.963814 15.9484 2.5776C15.9503 6.05277 15.9503 9.52764 15.9484 13.0022ZM3.83297 0.974029H2.48753C1.54136 0.974029 0.976814 1.5395 0.976814 2.48846C0.976814 9.49823 0.976814 16.5077 0.976814 23.5169C0.976814 24.4612 1.54507 25.0257 2.4931 25.0266C6.14532 25.0266 9.79567 25.0266 13.4442 25.0266C13.5943 25.0306 13.7443 25.0182 13.8917 24.9895C14.5955 24.8279 14.9744 24.2931 14.9744 23.463C14.9744 16.4885 14.9744 9.51402 14.9744 2.53953C14.9744 2.44667 14.9744 2.35382 14.967 2.26097C14.9205 1.61936 14.4628 1.06781 13.8258 1.00281C13.2687 0.946173 12.6986 0.991671 12.1182 0.991671C12.1182 1.07895 12.108 1.14673 12.1052 1.21359C12.0662 2.24611 11.3773 2.94901 10.3336 2.96108C8.7551 2.97965 7.1766 2.96944 5.60553 2.96108C5.36713 2.96538 5.13043 2.92006 4.91048 2.82799C4.69052 2.73591 4.49212 2.5991 4.32788 2.42625C3.94904 2.03534 3.82833 1.55343 3.83297 0.974029ZM11.1126 1.00095H4.8265C4.79585 1.67599 5.07348 1.98891 5.71138 1.9917C7.22674 1.99727 8.74334 1.99727 10.2612 1.9917C10.8898 1.98891 11.1646 1.65928 11.1126 1.00095Z" fill="#C6C6C6"/>
</g>
</svg>
